<?xml version="1.0" encoding="utf-8"?>
<!-- Generator: Adobe Illustrator 15.0.2, SVG Export Plug-In . SVG Version: 6.00 Build 0)  -->
<!DOCTYPE svg PUBLIC "-//W3C//DTD SVG 1.1//EN" "http://www.w3.org/Graphics/SVG/1.1/DTD/svg11.dtd">
<svg version="1.1" id="Calque_1" xmlns="http://www.w3.org/2000/svg" xmlns:xlink="http://www.w3.org/1999/xlink" x="0px" y="0px"
	 width="36px" height="1548px" viewBox="0 0 36 1548" enable-background="new 0 0 36 1548" xml:space="preserve">
<g>
	<circle fill="#FF5722" cx="18.027" cy="90.158" r="6.5"/>
	<circle fill="#FF5722" cx="18.027" cy="126.159" r="6"/>
	<circle fill="#FF5722" cx="23.009" cy="126.595" r="3"/>
	<circle fill="#FF5722" cx="18.054" cy="162.158" r="6"/>
	<circle fill="#FF5722" cx="24.814" cy="163.97" r="3"/>
	<circle fill="#FF5722" cx="18.027" cy="198.159" r="6"/>
	<circle fill="#FF5722" cx="26.184" cy="201.962" r="3"/>
	<circle fill="#FF5722" cx="18.027" cy="234.158" r="6"/>
	<circle fill="#FF5722" cx="27.039" cy="240.467" r="3"/>
	<circle fill="#FF5722" cx="18.026" cy="270.159" r="6"/>
	<circle fill="#FF5722" cx="27.22" cy="279.351" r="3"/>
	<circle fill="#FF5722" cx="18.027" cy="306.158" r="6"/>
	<circle fill="#FF5722" cx="25.483" cy="316.807" r="3"/>
	<circle fill="#FF5722" cx="18.027" cy="342.159" r="6"/>
	<circle fill="#FF5722" cx="23.521" cy="353.94" r="3"/>
	<circle fill="#FF5722" cx="18.027" cy="378.158" r="6"/>
	<circle fill="#FF5722" cx="21.392" cy="390.715" r="3"/>
	<circle fill="#FF5722" cx="18.027" cy="486.158" r="6"/>
	<circle fill="#FF5722" cx="14.662" cy="498.715" r="3"/>
	<circle fill="#FF5722" cx="18.026" cy="414.158" r="6"/>
	<circle fill="#FF5722" cx="19.16" cy="427.109" r="3"/>
	<circle fill="#FF5722" cx="18.027" cy="450.158" r="6"/>
	<circle fill="#FF5722" cx="16.895" cy="463.109" r="3"/>
	<circle fill="#FF5722" cx="18.027" cy="54.158" r="7"/>
	<circle fill="#FF5722" cx="18.027" cy="18.158" r="7"/>
	<circle fill="#FF5722" cx="18.027" cy="90.158" r="6.5"/>
	<circle fill="#FF5722" cx="18.027" cy="126.159" r="6"/>
	<circle fill="#FF5722" cx="23.009" cy="126.595" r="3"/>
	<circle fill="#FF5722" cx="18.054" cy="162.158" r="6"/>
	<circle fill="#FF5722" cx="24.814" cy="163.97" r="3"/>
	<circle fill="#FF5722" cx="18.054" cy="810.158" r="7"/>
	<circle fill="#FF5722" cx="18.054" cy="774.158" r="6.5"/>
	<circle fill="#FF5722" cx="18.054" cy="738.159" r="5.999"/>
	<circle fill="#FF5722" cx="13.072" cy="738.595" r="3"/>
	<circle fill="#FF5722" cx="18.027" cy="702.158" r="6"/>
	<circle fill="#FF5722" cx="11.267" cy="703.97" r="3"/>
	<circle fill="#FF5722" cx="18.054" cy="774.158" r="6.5"/>
	<circle fill="#FF5722" cx="18.054" cy="738.159" r="5.999"/>
	<circle fill="#FF5722" cx="13.072" cy="738.595" r="3"/>
	<circle fill="#FF5722" cx="18.027" cy="702.158" r="6"/>
	<circle fill="#FF5722" cx="11.267" cy="703.97" r="3"/>
	<circle fill="#FF5722" cx="18.027" cy="198.159" r="6"/>
	<circle fill="#FF5722" cx="26.184" cy="201.962" r="3"/>
	<circle fill="#FF5722" cx="18.027" cy="666.158" r="6"/>
	<circle fill="#FF5722" cx="9.871" cy="669.962" r="3"/>
	<circle fill="#FF5722" cx="18.027" cy="666.158" r="6"/>
	<circle fill="#FF5722" cx="9.871" cy="669.962" r="3"/>
	<circle fill="#FF5722" cx="18.027" cy="234.158" r="6"/>
	<circle fill="#FF5722" cx="27.039" cy="240.467" r="3"/>
	<circle fill="#FF5722" cx="18.028" cy="630.158" r="6"/>
	<circle fill="#FF5722" cx="9.018" cy="636.467" r="3"/>
	<circle fill="#FF5722" cx="18.028" cy="630.158" r="6"/>
	<circle fill="#FF5722" cx="9.018" cy="636.467" r="3"/>
	<circle fill="#FF5722" cx="18.026" cy="270.159" r="6"/>
	<circle fill="#FF5722" cx="27.22" cy="279.351" r="3"/>
	<circle fill="#FF5722" cx="18.027" cy="594.158" r="6"/>
	<circle fill="#FF5722" cx="8.836" cy="603.351" r="3"/>
	<circle fill="#FF5722" cx="18.027" cy="594.158" r="6"/>
	<circle fill="#FF5722" cx="8.836" cy="603.351" r="3"/>
	<circle fill="#FF5722" cx="18.027" cy="306.158" r="6"/>
	<circle fill="#FF5722" cx="25.483" cy="316.807" r="3"/>
	<circle fill="#FF5722" cx="18.027" cy="558.158" r="6"/>
	<circle fill="#FF5722" cx="10.57" cy="568.807" r="3"/>
	<circle fill="#FF5722" cx="18.027" cy="558.158" r="6"/>
	<circle fill="#FF5722" cx="10.57" cy="568.807" r="3"/>
	<circle fill="#FF5722" cx="18.027" cy="342.159" r="6"/>
	<circle fill="#FF5722" cx="23.521" cy="353.94" r="3"/>
	<circle fill="#FF5722" cx="18.027" cy="522.158" r="6"/>
	<circle fill="#FF5722" cx="12.533" cy="533.94" r="3"/>
	<circle fill="#FF5722" cx="18.027" cy="522.158" r="6"/>
	<circle fill="#FF5722" cx="12.533" cy="533.94" r="3"/>
	<circle fill="#FF5722" cx="18.027" cy="378.158" r="6"/>
	<circle fill="#FF5722" cx="21.392" cy="390.715" r="3"/>
	<circle fill="#FF5722" cx="18.026" cy="414.158" r="6"/>
	<circle fill="#FF5722" cx="19.16" cy="427.109" r="3"/>
	<circle fill="#FF5722" cx="18.027" cy="1530.158" r="6"/>
	<circle fill="#FF5722" cx="22.027" cy="1530.158" r="3"/>
	<circle fill="#FF5722" cx="18.049" cy="1494.158" r="6"/>
	<circle fill="#FF5722" cx="23.959" cy="1493.115" r="3"/>
	<path fill="#FF5722" d="M23.666,1456.106c-1.133-3.11-4.576-4.719-7.689-3.586c-3.113,1.135-4.719,4.578-3.586,7.691
		s4.576,4.719,7.689,3.586C23.194,1462.665,24.801,1459.222,23.666,1456.106z"/>
	<circle fill="#FF5722" cx="25.545" cy="1455.423" r="3"/>
	<circle fill="#FF5722" cx="18.026" cy="1422.158" r="6"/>
	<circle fill="#FF5722" cx="26.688" cy="1417.158" r="3"/>
	<circle fill="#FF5722" cx="18.026" cy="1386.158" r="6"/>
	<circle fill="#FF5722" cx="27.22" cy="1378.445" r="3"/>
	<circle fill="#FF5722" cx="18.026" cy="1350.158" r="6"/>
	<circle fill="#FF5722" cx="26.384" cy="1340.2" r="3.001"/>
	<circle fill="#FF5722" cx="18.027" cy="1314.158" r="6"/>
	<circle fill="#FF5722" cx="24.527" cy="1302.9" r="3"/>
	<circle fill="#FF5722" cx="18.027" cy="1278.159" r="6.001"/>
	<circle fill="#FF5722" cx="22.474" cy="1265.943" r="3"/>
	<circle fill="#FF5722" cx="18.027" cy="1242.158" r="6"/>
	<circle fill="#FF5722" cx="20.285" cy="1229.356" r="3.001"/>
	<circle fill="#FF5722" cx="18.027" cy="1170.158" r="6"/>
	<circle fill="#FF5722" cx="15.77" cy="1157.356" r="3.001"/>
	<circle fill="#FF5722" cx="18.027" cy="1206.14" r="6"/>
	<circle fill="#FF5722" cx="18.027" cy="1193.14" r="3"/>
	<circle fill="#FF5722" cx="18.027" cy="1530.158" r="6"/>
	<circle fill="#FF5722" cx="22.027" cy="1530.158" r="3"/>
	<circle fill="#FF5722" cx="18.049" cy="1494.158" r="6"/>
	<circle fill="#FF5722" cx="23.959" cy="1493.115" r="3"/>
	<circle fill="#FF5722" cx="18.054" cy="882.158" r="6"/>
	<circle fill="#FF5722" cx="14.055" cy="882.158" r="3"/>
	<circle fill="#FF5722" cx="18.031" cy="918.158" r="6"/>
	<circle fill="#FF5722" cx="12.123" cy="917.115" r="3"/>
	<circle fill="#FF5722" cx="18.054" cy="882.158" r="6"/>
	<circle fill="#FF5722" cx="14.055" cy="882.158" r="3"/>
	<circle fill="#FF5722" cx="18.031" cy="918.158" r="6"/>
	<circle fill="#FF5722" cx="12.123" cy="917.115" r="3"/>
	<path fill="#FF5722" d="M23.666,1456.106c-1.133-3.11-4.576-4.719-7.689-3.586c-3.113,1.135-4.719,4.578-3.586,7.691
		s4.576,4.719,7.689,3.586C23.194,1462.665,24.801,1459.222,23.666,1456.106z"/>
	<circle fill="#FF5722" cx="25.545" cy="1455.423" r="3"/>
	<circle fill="#FF5722" cx="18.027" cy="954.159" r="6.001"/>
	<circle fill="#FF5722" cx="10.511" cy="951.422" r="3"/>
	<circle fill="#FF5722" cx="18.027" cy="954.159" r="6.001"/>
	<circle fill="#FF5722" cx="10.511" cy="951.422" r="3"/>
	<circle fill="#FF5722" cx="18.026" cy="1422.158" r="6"/>
	<circle fill="#FF5722" cx="26.688" cy="1417.158" r="3"/>
	<circle fill="#FF5722" cx="18.027" cy="990.158" r="6"/>
	<circle fill="#FF5722" cx="9.367" cy="985.158" r="3"/>
	<circle fill="#FF5722" cx="18.027" cy="990.158" r="6"/>
	<circle fill="#FF5722" cx="9.367" cy="985.158" r="3"/>
	<circle fill="#FF5722" cx="18.026" cy="1386.158" r="6"/>
	<circle fill="#FF5722" cx="27.22" cy="1378.445" r="3"/>
	<circle fill="#FF5722" cx="18.027" cy="1026.158" r="6"/>
	<circle fill="#FF5722" cx="8.834" cy="1018.446" r="3"/>
	<circle fill="#FF5722" cx="18.027" cy="1026.158" r="6"/>
	<circle fill="#FF5722" cx="8.834" cy="1018.446" r="3"/>
	<circle fill="#FF5722" cx="18.026" cy="1350.158" r="6"/>
	<circle fill="#FF5722" cx="26.384" cy="1340.2" r="3.001"/>
	<circle fill="#FF5722" cx="18.026" cy="1062.159" r="5.999"/>
	<circle fill="#FF5722" cx="9.67" cy="1052.201" r="3"/>
	<circle fill="#FF5722" cx="18.026" cy="1062.159" r="5.999"/>
	<circle fill="#FF5722" cx="9.67" cy="1052.201" r="3"/>
	<circle fill="#FF5722" cx="18.027" cy="1314.158" r="6"/>
	<circle fill="#FF5722" cx="24.527" cy="1302.9" r="3"/>
	<circle fill="#FF5722" cx="18.027" cy="1098.158" r="6"/>
	<circle fill="#FF5722" cx="11.527" cy="1086.901" r="3"/>
	<circle fill="#FF5722" cx="18.027" cy="1098.158" r="6"/>
	<circle fill="#FF5722" cx="11.527" cy="1086.901" r="3"/>
	<circle fill="#FF5722" cx="18.027" cy="1278.159" r="6.001"/>
	<circle fill="#FF5722" cx="22.474" cy="1265.943" r="3"/>
	<circle fill="#FF5722" cx="18.027" cy="1134.16" r="6"/>
	<circle fill="#FF5722" cx="13.582" cy="1121.943" r="3"/>
	<circle fill="#FF5722" cx="18.027" cy="1134.16" r="6"/>
	<circle fill="#FF5722" cx="13.582" cy="1121.943" r="3"/>
	<circle fill="#FF5722" cx="18.027" cy="1242.158" r="6"/>
	<circle fill="#FF5722" cx="20.285" cy="1229.356" r="3.001"/>
	<circle fill="#FF5722" cx="18.027" cy="846.158" r="7"/>
	<circle fill="#FF5722" cx="18.027" cy="846.158" r="7"/>
	<rect y="0" fill="#607D8B" fill-opacity="0" width="36" height="1548"/>
</g>
</svg>
